<svg xmlns="http://www.w3.org/2000/svg" viewBox="0 0 640 640" width="1em" height="1em" style="vertical-align:-0.125em;"><defs><pattern id="femboy" patternUnits="objectBoundingBox" patternContentUnits="objectBoundingBox" width="1" height="1" patternTransform="scale(1.15)"><rect y="0" width="1" height="0.142857" fill="#d460a7"/><rect y="0.142857" width="1" height="0.142857" fill="#e4adcd"/><rect y="0.285714" width="1" height="0.142857" fill="#ffffff"/><rect y="0.428571" width="1" height="0.142857" fill="#57cef8"/><rect y="0.571428" width="1" height="0.142857" fill="#ffffff"/><rect y="0.714285" width="1" height="0.142857" fill="#e4adcd"/><rect y="0.857142" width="1" height="0.142857" fill="#d460a7"/></pattern></defs><path d="M384 96C384 78.3 398.3 64 416 64L544 64C561.7 64 576 78.3 576 96L576 224C576 241.7 561.7 256 544 256C526.3 256 512 241.7 512 224L512 173.3L417 268.3C436.5 296.7 448 331 448 368.1C448 465.3 369.2 544.1 272 544.1C174.8 544.1 96 465.2 96 368C96 270.8 174.8 192 272 192C309 192 343.4 203.4 371.8 223L466.8 128L416.1 128C398.4 128 384.1 113.7 384.1 96zM272 480C333.9 480 384 429.9 384 368C384 306.1 333.9 256 272 256C210.1 256 160 306.1 160 368C160 429.9 210.1 480 272 480z" fill="url(#femboy)"/></svg>